[ConversionWorker] Logging FFmpeg output to: ffmpeg_logs\ffmpeg_conversion_t_wav_20250525_151850.log\n[ConversionWorker] Getting duration with command: ffprobe -v error -show_entries format=duration -of default=noprint_wrappers=1:nokey=1 Z:\AAAAA01\t.wav\n[ConversionWorker] Duration for t.wav: 11418446 ms\n[ConversionWorker] Starting FFmpeg for t.wav: ffmpeg -i Z:\AAAAA01\t.wav -b:a 256k -vn -y -loglevel error -stats -progress pipe:1 Z:\AAAAA01\t.mp3\n[ConversionWorker] FFmpeg process started. PID: 14276\n[STDOUT RAW] bitrate= 154.8kbits/s\n[STDOUT RAW] total_size=98924\n[STDOUT RAW] out_time_us=5113958\n[STDOUT RAW] out_time_ms=5113958\n[STDOUT RAW] out_time=00:00:05.113958\n[STDOUT RAW] dup_frames=0\n[STDOUT RAW] drop_frames=0\n[STDOUT RAW] speed=9.96x\n[STDOUT RAW] progress=continue\n[STDERR RAW] size=      97KiB time=00:00:05.11 bitrate= 154.8kbits/s speed=9.96x\n[STDOUT RAW] bitrate= 157.2kbits/s\n[STDOUT RAW] total_size=188204\n[STDOUT RAW] out_time_us=9577958\n[STDOUT RAW] out_time_ms=9577958\n[STDOUT RAW] out_time=00:00:09.577958\n[STDOUT RAW] dup_frames=0\n[STDOUT RAW] drop_frames=0\n[STDOUT RAW] speed=9.24x\n[STDOUT RAW] progress=continue\n[STDERR RAW] size=     184KiB time=00:00:09.57 bitrate= 157.2kbits/s speed=9.24x\n[STDOUT RAW] bitrate= 136.1kbits/s\n[STDOUT RAW] total_size=262144\n[STDOUT RAW] out_time_us=15409958\n[STDOUT RAW] out_time_ms=15409958\n[STDOUT RAW] out_time=00:00:15.409958\n[STDOUT RAW] dup_frames=0\n[STDOUT RAW] drop_frames=0\n[STDOUT RAW] speed=9.97x\n[STDOUT RAW] progress=continue\n[STDERR RAW] size=     256KiB time=00:00:15.40 bitrate= 136.1kbits/s speed=9.97x\n[STDOUT RAW] bitrate= 147.4kbits/s\n[STDOUT RAW] total_size=2359296\n[STDOUT RAW] out_time_us=128041958\n[STDOUT RAW] out_time_ms=128041958\n[STDOUT RAW] out_time=00:02:08.041958\n[STDOUT RAW] dup_frames=0\n[STDOUT RAW] drop_frames=0\n[STDOUT RAW] speed=  62x\n[STDOUT RAW] progress=continue\n[ConversionWorker] Cancel method called.\n[ConversionWorker] Cancellation requested during processing. Terminating FFmpeg.\n[ConversionWorker] Waiting for reader threads to join...\n[STDERR RAW] size=    2304KiB time=00:02:08.04 bitrate= 147.4kbits/s speed=  62x\n[ConversionWorker] Process poll is None after loop, waiting for process to terminate...\n[ConversionWorker] FFmpeg process ended. Return code: 1\n[ConversionWorker] Closing FFmpeg log file.\n